<?xml version="1.0" standalone="no"?>
<!DOCTYPE svg PUBLIC "-//W3C//DTD SVG 20010904//EN"
 "http://www.w3.org/TR/2001/REC-SVG-20010904/DTD/svg10.dtd">
<svg version="1.0" xmlns="http://www.w3.org/2000/svg"
 width="1028.000000pt" height="1280.000000pt" viewBox="0 0 1028.000000 1280.000000"
 preserveAspectRatio="xMidYMid meet">
<metadata>
Created by potrace 1.15, written by Peter Selinger 2001-2017
</metadata>
<g transform="translate(0.000000,1280.000000) scale(0.100000,-0.100000)"
fill="#000000" stroke="none">
<path d="M5645 12794 c-388 -32 -872 -121 -1165 -215 -127 -41 -177 -67 -293
-150 -98 -70 -98 -70 -185 -79 -143 -15 -390 -65 -577 -115 -554 -151 -1279
-613 -1732 -1104 -202 -219 -292 -345 -486 -676 -339 -583 -450 -880 -513
-1385 -33 -265 -37 -790 -8 -1210 4 -52 3 -92 -1 -88 -4 4 -156 -230 -338
-520 -181 -290 -334 -534 -339 -542 -6 -10 12 -144 56 -408 36 -216 66 -397
66 -403 0 -7 14 -8 40 -4 35 6 40 4 40 -12 0 -13 -22 -29 -75 -56 l-76 -37 7
-38 c3 -20 19 -89 34 -152 16 -63 33 -149 40 -190 22 -153 76 -332 145 -485
15 -33 59 -143 97 -245 l69 -185 -15 -165 c-25 -267 -29 -414 -17 -570 27
-323 139 -780 293 -1195 37 -99 50 -122 136 -230 152 -189 328 -392 429 -492
108 -107 148 -129 443 -241 208 -78 248 -89 256 -67 4 10 21 3 67 -31 97 -72
187 -109 367 -153 370 -89 425 -91 697 -21 314 79 363 110 645 403 261 271
285 303 456 617 271 497 303 588 391 1101 116 673 137 1000 126 1924 -9 721
-16 848 -60 1080 -37 197 -54 249 -156 482 -94 214 -151 307 -243 398 -124
123 -241 214 -350 275 -56 30 -351 122 -439 137 -23 3 -34 9 -27 13 13 8 8
188 -5 210 -7 11 -119 69 -175 90 -19 7 -93 38 -165 70 -71 31 -155 67 -185
79 -30 12 -60 25 -67 27 -6 3 -13 -3 -16 -13 -4 -16 -5 -16 -6 -1 -1 22 0 22
-296 54 -137 15 -252 29 -253 30 -5 3 11 132 54 434 140 983 308 1724 480
2113 71 160 202 348 428 612 159 185 523 548 716 714 l155 133 122 -6 c244
-12 448 -67 689 -185 173 -84 281 -149 609 -366 358 -237 490 -339 726 -558
237 -219 737 -790 991 -1130 526 -705 990 -1665 1153 -2387 64 -286 99 -694
79 -932 l-7 -75 -77 23 c-42 12 -103 27 -136 34 -32 7 -78 23 -100 36 -50 30
-163 55 -399 89 -192 28 -288 28 -425 0 -609 -127 -1152 -815 -1541 -1955
-177 -517 -262 -930 -324 -1580 -94 -978 -78 -1887 41 -2310 52 -184 232 -496
372 -642 163 -171 325 -232 677 -257 66 -5 170 -20 230 -34 296 -69 726 -93
985 -53 396 60 742 186 1020 372 521 348 808 694 978 1176 110 310 172 959
172 1788 0 400 -11 665 -37 925 -10 94 -17 186 -17 205 0 19 24 114 53 210
103 348 210 813 261 1137 6 37 13 78 16 90 5 20 0 22 -73 34 -69 11 -74 14
-45 20 18 4 35 8 37 11 2 2 0 21 -5 43 -5 22 -10 85 -10 140 0 114 4 126 98
261 71 103 69 158 -8 170 -19 3 -95 33 -168 65 -73 32 -140 59 -149 59 -12 0
-14 8 -10 38 20 120 40 585 40 917 1 435 -17 671 -69 955 -105 572 -583 1500
-1188 2308 -239 318 -455 570 -696 812 -429 430 -763 668 -1142 814 -193 74
-539 184 -633 201 -88 16 -447 28 -560 19z m-3147 -4624 c316 -37 316 -37 373
-66 26 -13 58 -25 73 -28 14 -3 43 -14 63 -25 43 -22 150 -69 233 -100 31 -12
69 -30 86 -40 30 -18 31 -21 26 -73 -2 -29 -6 -54 -7 -56 -2 -2 -31 2 -64 8
-87 16 -298 40 -348 40 -24 0 -43 5 -43 10 0 24 -487 1 -633 -30 -101 -22
-220 -72 -410 -172 -174 -92 -250 -143 -349 -236 -200 -188 -407 -498 -640
-957 -227 -449 -293 -674 -333 -1136 -9 -101 -18 -204 -21 -229 l-6 -45 -14
28 c-26 48 -53 177 -79 372 -13 105 -34 226 -45 270 -11 44 -24 109 -29 144
-6 35 -12 65 -15 68 -3 3 -25 -6 -50 -20 -42 -23 -46 -24 -46 -7 0 10 5 20 11
22 8 3 -7 116 -50 366 -33 199 -61 371 -61 383 0 11 145 250 322 532 176 282
321 519 320 529 0 10 10 19 26 23 15 3 81 23 147 45 66 21 221 70 345 110 124
39 236 75 250 80 14 5 126 41 250 80 124 40 270 87 325 105 55 18 108 34 118
34 10 1 134 -13 275 -29z m5282 -1340 c74 -11 182 -30 240 -42 l105 -23 -110
-6 c-346 -20 -642 -184 -952 -528 -187 -207 -350 -445 -495 -726 -37 -71 -68
-127 -68 -122 0 4 16 39 35 77 19 38 35 71 35 72 0 2 -12 3 -27 3 -16 0 -46 4
-68 8 -22 3 -32 3 -21 -1 15 -7 7 -16 -53 -60 -39 -29 -74 -52 -77 -52 -3 0
-11 -6 -18 -12 -8 -7 -24 -20 -36 -28 -12 -8 -28 -21 -36 -27 -7 -7 -16 -13
-20 -13 -4 0 -55 -36 -114 -80 -59 -44 -110 -80 -114 -80 -4 0 -14 -7 -23 -15
-8 -8 -18 -13 -22 -10 -5 2 -30 -54 -56 -125 -26 -72 -50 -129 -52 -127 -4 5
52 163 125 347 115 294 345 722 495 920 278 369 575 585 897 654 95 21 274 19
430 -4z m2247 -239 c76 -32 144 -60 151 -62 9 -3 -1 -25 -33 -68 -90 -122 -95
-137 -95 -285 0 -72 4 -146 9 -164 11 -39 10 -39 -123 -17 -49 8 -92 12 -95
10 -5 -6 -14 -63 -46 -319 -24 -194 -76 -426 -96 -426 -5 0 -9 6 -9 13 0 8
-22 69 -50 137 -86 213 -192 381 -398 628 -51 63 -92 115 -90 117 22 23 443
255 461 255 40 0 88 25 182 94 89 65 89 66 86 106 -1 22 0 40 3 40 3 0 68 -26
143 -59z m-3417 -1070 c-48 -96 -154 -337 -200 -456 -41 -106 -60 -147 -45
-95 33 115 252 610 269 610 4 0 -7 -27 -24 -59z m-276 -665 c-9 -26 -18 -45
-20 -43 -2 2 3 25 12 51 9 26 18 45 20 43 2 -2 -3 -25 -12 -51z m-4553 -3093
c13 -16 12 -17 -3 -4 -17 13 -22 21 -14 21 2 0 10 -8 17 -17z"/>
<path d="M6525 6238 c-95 -100 -142 -171 -229 -346 -90 -179 -108 -228 -93
-240 19 -16 215 -82 287 -97 37 -8 66 -10 68 -5 2 5 23 50 47 99 89 183 139
256 333 492 l22 27 -147 72 c-82 39 -162 74 -179 77 -27 5 -37 -3 -109 -79z"/>
<path d="M6604 5625 c-20 -42 -35 -77 -33 -79 2 -3 23 31 46 75 23 43 38 79
33 79 -5 0 -26 -34 -46 -75z"/>
</g>
</svg>
